# xmcd
#
# Track frame offsets:
#	150
#	14721
#	28960
#	43577
#	58797
#	69461
#	83412
#	94961
#	110539
#	126983
#
# Disc length: 1965 seconds
# Revision: 0
# Processed by: cddbd v1.5.2PL0 Copyright (c) Steve Scherf et al.
# Submitted via: dBpowerAMP V12.0
#
DISCID=8a07ab0a
DTITLE=The Bone Collector - The Brotherhood Album
DYEAR=2010
DGENRE=Country
TTITLE0=My Baby Looks Good In Camouflage 
TTITLE1=Weapons Of Bass Destruction
TTITLE2=Yella Acorns
TTITLE3=Granddaddy's Gun
TTITLE4=Buck Fever
TTITLE5=Hawgs
TTITLE6=Duck Blind
TTITLE7=Keepers
TTITLE8=Hung Up
TTITLE9=Openin' Day
EXTD=
EXTT0=
EXTT1=
EXTT2=
EXTT3=
EXTT4=
EXTT5=
EXTT6=
EXTT7=
EXTT8=
EXTT9=
PLAYORDER=
